<svg width="46" height="46" viewBox="0 0 46 46" fill="none" xmlns="http://www.w3.org/2000/svg">
<rect x="0.568526" y="0.805831" width="44.3451" height="44.3451" rx="6.25379" fill="#E9E4FF"/>
<rect x="0.568526" y="0.805831" width="44.3451" height="44.3451" rx="6.25379" stroke="#D8D0FF" stroke-width="1.13705"/>
<g clip-path="url(#clip0_1751_581)">
<path d="M33.193 18.2115L30.3504 15.3689C30.217 15.2356 30.0362 15.1606 29.8476 15.1606C29.659 15.1606 29.4781 15.2356 29.3448 15.3689C29.2115 15.5023 29.1365 15.6831 29.1365 15.8717C29.1365 16.0603 29.2115 16.2411 29.3448 16.3745L30.9749 18.0037H28.4263C27.5556 18.0352 26.6998 18.2384 25.9079 18.6015C24.698 19.1603 23.1692 20.3524 22.7508 22.8655C22.2782 25.7028 20.1658 26.3495 19.1087 26.4951C18.9223 25.6348 18.4231 24.8742 17.708 24.3609C16.9928 23.8475 16.1126 23.6179 15.2378 23.7166C14.363 23.8152 13.556 24.235 12.9731 24.8947C12.3902 25.5544 12.073 26.407 12.0829 27.2873C12.0927 28.1676 12.429 29.0128 13.0265 29.6593C13.6241 30.3058 14.4403 30.7074 15.3171 30.7864C16.1938 30.8654 17.0687 30.6162 17.7722 30.0869C18.4756 29.5577 18.9576 28.7861 19.1247 27.9218C19.7635 27.849 20.3877 27.6797 20.9759 27.4199C22.1858 26.8869 23.7182 25.6965 24.1526 23.0946C24.7531 19.4934 28.2788 19.425 28.4263 19.425H30.9749L29.3448 21.0542C29.2115 21.1875 29.1365 21.3684 29.1365 21.557C29.1365 21.7455 29.2115 21.9264 29.3448 22.0598C29.4781 22.1931 29.659 22.268 29.8476 22.268C30.0362 22.268 30.217 22.1931 30.3504 22.0598L33.193 19.2171C33.2591 19.1511 33.3115 19.0727 33.3473 18.9865C33.383 18.9002 33.4014 18.8077 33.4014 18.7143C33.4014 18.6209 33.383 18.5285 33.3473 18.4422C33.3115 18.3559 33.2591 18.2775 33.193 18.2115ZM15.6344 29.3742C15.2128 29.3742 14.8006 29.2492 14.45 29.0149C14.0994 28.7806 13.8261 28.4477 13.6647 28.0581C13.5034 27.6685 13.4612 27.2399 13.5434 26.8263C13.6257 26.4127 13.8287 26.0329 14.1269 25.7347C14.4251 25.4365 14.8049 25.2335 15.2185 25.1512C15.6321 25.069 16.0607 25.1112 16.4503 25.2725C16.8399 25.4339 17.1728 25.7072 17.4071 26.0578C17.6414 26.4084 17.7664 26.8206 17.7664 27.2422C17.7664 27.8077 17.5418 28.3499 17.142 28.7498C16.7421 29.1496 16.1999 29.3742 15.6344 29.3742Z" fill="#5C15CC"/>
</g>
<defs>
<clipPath id="clip0_1751_581">
<rect width="22.7411" height="22.7411" fill="white" transform="translate(11.3705 11.6079)"/>
</clipPath>
</defs>
</svg>
