<svg width="46" height="47" viewBox="0 0 46 47" fill="none" xmlns="http://www.w3.org/2000/svg">
<rect x="0.568526" y="1.18669" width="44.3451" height="44.3451" rx="6.25379" fill="#F7F8F9"/>
<rect x="0.568526" y="1.18669" width="44.3451" height="44.3451" rx="6.25379" stroke="#EFF1F3" stroke-width="1.13705"/>
<g clip-path="url(#clip0_1751_585)">
<path d="M30.5582 16.9632H27.0049V16.2526C27.0049 15.6871 26.7803 15.1449 26.3805 14.745C25.9807 14.3452 25.4384 14.1206 24.873 14.1206H20.609C20.0436 14.1206 19.5013 14.3452 19.1015 14.745C18.7017 15.1449 18.477 15.6871 18.477 16.2526V16.9632H14.9238C14.5468 16.9632 14.1853 17.113 13.9187 17.3795C13.6522 17.6461 13.5024 18.0076 13.5024 18.3846V29.7551C13.5024 30.132 13.6522 30.4936 13.9187 30.7601C14.1853 31.0266 14.5468 31.1764 14.9238 31.1764H30.5582C30.9352 31.1764 31.2967 31.0266 31.5633 30.7601C31.8298 30.4936 31.9795 30.132 31.9795 29.7551V18.3846C31.9795 18.0076 31.8298 17.6461 31.5633 17.3795C31.2967 17.113 30.9352 16.9632 30.5582 16.9632ZM19.8984 16.2526C19.8984 16.0641 19.9732 15.8833 20.1065 15.7501C20.2398 15.6168 20.4205 15.5419 20.609 15.5419H24.873C25.0614 15.5419 25.2422 15.6168 25.3755 15.7501C25.5088 15.8833 25.5836 16.0641 25.5836 16.2526V16.9632H19.8984V16.2526ZM30.5582 18.3846V22.0809C28.1596 23.3865 25.472 24.0703 22.741 24.0698C20.0101 24.0703 17.3226 23.3868 14.9238 22.0818V18.3846H30.5582ZM30.5582 29.7551H14.9238V23.6825C17.3577 24.873 20.0315 25.4917 22.741 25.4911C25.4505 25.4912 28.1243 24.8723 30.5582 23.6816V29.7551ZM20.609 21.9378C20.609 21.7494 20.6839 21.5686 20.8172 21.4353C20.9504 21.3021 21.1312 21.2272 21.3197 21.2272H24.1623C24.3508 21.2272 24.5315 21.3021 24.6648 21.4353C24.7981 21.5686 24.873 21.7494 24.873 21.9378C24.873 22.1263 24.7981 22.3071 24.6648 22.4404C24.5315 22.5736 24.3508 22.6485 24.1623 22.6485H21.3197C21.1312 22.6485 20.9504 22.5736 20.8172 22.4404C20.6839 22.3071 20.609 22.1263 20.609 21.9378Z" fill="#717989"/>
</g>
<defs>
<clipPath id="clip0_1751_585">
<rect width="22.7411" height="22.7411" fill="white" transform="translate(11.3705 11.9888)"/>
</clipPath>
</defs>
</svg>
