<svg width="49" height="49" viewBox="0 0 49 49" fill="none" xmlns="http://www.w3.org/2000/svg">
<rect x="0.605748" y="0.605748" width="47.2487" height="47.2487" rx="4.24023" fill="#EFF1F3"/>
<rect x="0.605748" y="0.605748" width="47.2487" height="47.2487" rx="4.24023" stroke="#E6E8EC" stroke-width="1.2115"/>
<g clip-path="url(#clip0_1754_623)">
<path d="M24.2301 12.418C18.1161 12.418 13.3265 15.212 13.3265 18.7784V29.6819C13.3265 33.2483 18.1161 36.0423 24.2301 36.0423C30.344 36.0423 35.1336 33.2483 35.1336 29.6819V18.7784C35.1336 15.212 30.344 12.418 24.2301 12.418ZM33.3164 24.2301C33.3164 25.3228 32.4214 26.437 30.8619 27.2877C29.106 28.2451 26.7504 28.7733 24.2301 28.7733C21.7098 28.7733 19.3542 28.2451 17.5982 27.2877C16.0388 26.437 15.1438 25.3228 15.1438 24.2301V22.3402C17.0814 24.0439 20.3945 25.1388 24.2301 25.1388C28.0656 25.1388 31.3787 24.0393 33.3164 22.3402V24.2301ZM17.5982 15.7208C19.3542 14.7634 21.7098 14.2352 24.2301 14.2352C26.7504 14.2352 29.106 14.7634 30.8619 15.7208C32.4214 16.5715 33.3164 17.6857 33.3164 18.7784C33.3164 19.871 32.4214 20.9852 30.8619 21.8359C29.106 22.7934 26.7504 23.3215 24.2301 23.3215C21.7098 23.3215 19.3542 22.7934 17.5982 21.8359C16.0388 20.9852 15.1438 19.871 15.1438 18.7784C15.1438 17.6857 16.0388 16.5715 17.5982 15.7208ZM30.8619 32.7394C29.106 33.6969 26.7504 34.225 24.2301 34.225C21.7098 34.225 19.3542 33.6969 17.5982 32.7394C16.0388 31.8887 15.1438 30.7745 15.1438 29.6819V27.792C17.0814 29.4956 20.3945 30.5905 24.2301 30.5905C28.0656 30.5905 31.3787 29.4911 33.3164 27.792V29.6819C33.3164 30.7745 32.4214 31.8887 30.8619 32.7394Z" fill="#979DA9"/>
</g>
<defs>
<clipPath id="clip0_1754_623">
<rect width="29.0761" height="29.0761" fill="white" transform="translate(9.69202 9.69189)"/>
</clipPath>
</defs>
</svg>
