<svg width="46" height="46" viewBox="0 0 46 46" fill="none" xmlns="http://www.w3.org/2000/svg">
<rect x="0.568526" y="1.04314" width="44.3451" height="44.3451" rx="6.25379" fill="#FFE6F7"/>
<rect x="0.568526" y="1.04314" width="44.3451" height="44.3451" rx="6.25379" stroke="#FFD1F1" stroke-width="1.13705"/>
<g clip-path="url(#clip0_1751_587)">
<path d="M32.9843 23.9265L24.1624 15.1046C24.0308 14.9721 23.8743 14.867 23.7018 14.7954C23.5294 14.7239 23.3444 14.6874 23.1577 14.688H14.9238C14.7353 14.688 14.5546 14.7629 14.4213 14.8961C14.288 15.0294 14.2131 15.2102 14.2131 15.3987V23.6325C14.2125 23.8192 14.2491 24.0042 14.3206 24.1767C14.3921 24.3492 14.4972 24.5057 14.6298 24.6372L23.4517 33.4591C23.5837 33.5912 23.7404 33.6959 23.9128 33.7673C24.0853 33.8388 24.2702 33.8755 24.4568 33.8755C24.6435 33.8755 24.8284 33.8388 25.0008 33.7673C25.1733 33.6959 25.33 33.5912 25.462 33.4591L32.9843 25.9368C33.1163 25.8048 33.221 25.6481 33.2925 25.4757C33.3639 25.3032 33.4007 25.1184 33.4007 24.9317C33.4007 24.745 33.3639 24.5602 33.2925 24.3877C33.221 24.2152 33.1163 24.0585 32.9843 23.9265ZM24.4564 32.4544L15.6345 23.6325V16.1093H23.1577L31.9796 24.9312L24.4564 32.4544ZM19.8984 19.3073C19.8984 19.5181 19.8359 19.7242 19.7188 19.8995C19.6016 20.0748 19.4351 20.2114 19.2404 20.2921C19.0456 20.3728 18.8312 20.3939 18.6245 20.3528C18.4177 20.3116 18.2277 20.2101 18.0787 20.061C17.9296 19.912 17.828 19.722 17.7869 19.5152C17.7458 19.3085 17.7669 19.0941 17.8476 18.8993C17.9283 18.7046 18.0649 18.5381 18.2402 18.4209C18.4155 18.3038 18.6216 18.2413 18.8324 18.2413C19.1151 18.2413 19.3863 18.3536 19.5862 18.5535C19.7861 18.7534 19.8984 19.0246 19.8984 19.3073Z" fill="#CC0687"/>
</g>
<defs>
<clipPath id="clip0_1751_587">
<rect width="22.7411" height="22.7411" fill="white" transform="translate(11.3705 11.8452)"/>
</clipPath>
</defs>
</svg>
