<svg width="46" height="46" viewBox="0 0 46 46" fill="none" xmlns="http://www.w3.org/2000/svg">
<rect x="0.568526" y="0.568526" width="44.3451" height="44.3451" rx="6.25379" fill="#FFE9D5"/>
<rect x="0.568526" y="0.568526" width="44.3451" height="44.3451" rx="6.25379" stroke="#FDD4B7" stroke-width="1.13705"/>
<g clip-path="url(#clip0_1751_589)">
<path d="M30.3504 17.2636L26.7971 13.7103C26.7311 13.6443 26.6527 13.592 26.5664 13.5564C26.4802 13.5207 26.3877 13.5024 26.2944 13.5024H19.1878C18.8108 13.5024 18.4493 13.6522 18.1828 13.9187C17.9162 14.1853 17.7665 14.5468 17.7665 14.9238V16.3451H16.3451C15.9682 16.3451 15.6067 16.4948 15.3401 16.7614C15.0736 17.0279 14.9238 17.3894 14.9238 17.7664V30.5582C14.9238 30.9352 15.0736 31.2967 15.3401 31.5633C15.6067 31.8298 15.9682 31.9795 16.3451 31.9795H26.2944C26.6713 31.9795 27.0328 31.8298 27.2994 31.5633C27.5659 31.2967 27.7157 30.9352 27.7157 30.5582V29.1369H29.137C29.5139 29.1369 29.8755 28.9872 30.142 28.7206C30.4086 28.4541 30.5583 28.0926 30.5583 27.7156V17.7664C30.5584 17.673 30.5401 17.5806 30.5044 17.4943C30.4687 17.408 30.4164 17.3296 30.3504 17.2636ZM26.2944 30.5582H16.3451V17.7664H23.1577L26.2944 20.9031V28.412C26.2944 28.4174 26.2944 28.4218 26.2944 28.4263C26.2944 28.4307 26.2944 28.4351 26.2944 28.4405V30.5582ZM29.137 27.7156H27.7157V20.609C27.7157 20.5157 27.6974 20.4232 27.6618 20.3369C27.6261 20.2507 27.5738 20.1723 27.5078 20.1062L23.9545 16.5529C23.8885 16.487 23.8101 16.4347 23.7238 16.399C23.6375 16.3633 23.5451 16.345 23.4517 16.3451H19.1878V14.9238H26.0003L29.137 18.0604V27.7156ZM24.1624 24.873C24.1624 25.0614 24.0875 25.2422 23.9542 25.3755C23.821 25.5088 23.6402 25.5836 23.4517 25.5836H19.1878C18.9993 25.5836 18.8185 25.5088 18.6853 25.3755C18.552 25.2422 18.4771 25.0614 18.4771 24.873C18.4771 24.6845 18.552 24.5037 18.6853 24.3705C18.8185 24.2372 18.9993 24.1623 19.1878 24.1623H23.4517C23.6402 24.1623 23.821 24.2372 23.9542 24.3705C24.0875 24.5037 24.1624 24.6845 24.1624 24.873ZM24.1624 27.7156C24.1624 27.9041 24.0875 28.0848 23.9542 28.2181C23.821 28.3514 23.6402 28.4263 23.4517 28.4263H19.1878C18.9993 28.4263 18.8185 28.3514 18.6853 28.2181C18.552 28.0848 18.4771 27.9041 18.4771 27.7156C18.4771 27.5271 18.552 27.3464 18.6853 27.2131C18.8185 27.0798 18.9993 27.0049 19.1878 27.0049H23.4517C23.6402 27.0049 23.821 27.0798 23.9542 27.2131C24.0875 27.3464 24.1624 27.5271 24.1624 27.7156Z" fill="#9F3E15"/>
</g>
<defs>
<clipPath id="clip0_1751_589">
<rect width="22.7411" height="22.7411" fill="white" transform="translate(11.3705 11.3706)"/>
</clipPath>
</defs>
</svg>
