<svg width="84" height="85" viewBox="0 0 84 85" fill="none" xmlns="http://www.w3.org/2000/svg">
<path fill-rule="evenodd" clip-rule="evenodd" d="M39.0363 42.1418C38.5625 42.2036 38.0792 42.2355 37.5883 42.2355H36.0221V42.9999H37.5883C38.0792 42.9999 38.5625 43.0318 39.0363 43.0936L39.0603 42.9093C39.0853 42.9062 39.1102 42.903 39.1351 42.8997L39.0983 42.6177L39.1351 42.3356C39.1102 42.3324 39.0853 42.3292 39.0603 42.3261L39.0363 42.1418ZM44.3351 39.946C43.5724 40.5321 42.7314 41.0212 41.8306 41.3947L42.1233 42.1007C43.0867 41.7013 43.9858 41.1784 44.8009 40.552L44.3351 39.946ZM47.8303 35.3949C47.4568 36.2957 46.9678 37.1368 46.3816 37.8995L46.9877 38.3652C47.614 37.5501 48.1369 36.6511 48.5364 35.6877L47.8303 35.3949ZM48.6712 31.1526C48.6712 31.6436 48.6393 32.1269 48.5775 32.6006L49.3354 32.6995C49.4014 32.1931 49.4355 31.6767 49.4355 31.1526V29.595H48.6712V31.1526ZM48.6712 23.3647V26.4798H49.4355V23.3647H48.6712ZM48.6712 17.1343V20.2495H49.4355V17.1343H48.6712ZM48.6712 12.4615V14.0191H49.4355V12.4615C49.4355 11.9705 49.4674 11.4872 49.5292 11.0135L48.7713 10.9146C48.7052 11.4211 48.6712 11.9374 48.6712 12.4615ZM51.119 5.24887C50.4926 6.06398 49.9698 6.96305 49.5703 7.92641L50.2763 8.21919C50.6499 7.31839 51.1389 6.47736 51.725 5.7146L51.119 5.24887ZM55.9833 1.51338C55.02 1.91287 54.1209 2.43571 53.3058 3.06208L53.7715 3.66814C54.5343 3.082 55.3753 2.59297 56.2761 2.21942L55.9833 1.51338ZM60.5184 0.614258C59.9943 0.614258 59.478 0.648312 58.9715 0.714375L59.0704 1.47229C59.5441 1.41049 60.0274 1.37859 60.5184 1.37859H61.986V0.614258H60.5184ZM84 0.614258H82.5324V1.37859H84V0.614258ZM79.5972 0.614258H76.662V1.37859H79.5972V0.614258ZM73.7268 0.614258H70.7916V1.37859H73.7268V0.614258ZM67.8564 0.614258H64.9212V1.37859H67.8564V0.614258ZM32.8897 42.9999H29.7574V42.2355H32.8897V42.9999ZM26.625 42.9999H23.4927V42.2355H26.625V42.9999ZM20.3603 42.9999H17.228V42.2355H20.3603V42.9999ZM14.0956 42.9999H10.9632V42.2355H14.0956V42.9999ZM7.83089 42.9999H4.69853V42.2355H7.83089V42.9999ZM1.56618 42.9999H0V42.2355H1.56618V42.9999ZM44.3351 45.2894C43.5724 44.7033 42.7314 44.2142 41.8306 43.8407L42.1233 43.1347C43.0867 43.5341 43.9858 44.057 44.8009 44.6834L44.3351 45.2894ZM47.8303 49.8405C47.4568 48.9397 46.9678 48.0986 46.3816 47.3359L46.9877 46.8702C47.614 47.6853 48.1369 48.5843 48.5364 49.5477L47.8303 49.8405ZM48.6712 54.0828C48.6712 53.5918 48.6393 53.1085 48.5775 52.6348L49.3354 52.5359C49.4014 53.0423 49.4355 53.5587 49.4355 54.0828V55.6404H48.6712V54.0828ZM48.6712 61.8707V58.7556H49.4355V61.8707H48.6712ZM48.6712 68.1011V64.9859H49.4355V68.1011H48.6712ZM48.6712 72.7739V71.2163H49.4355V72.7739C49.4355 73.2649 49.4674 73.7482 49.5292 74.2219L48.7713 74.3208C48.7052 73.8143 48.6712 73.298 48.6712 72.7739ZM51.119 79.9865C50.4926 79.1714 49.9698 78.2723 49.5703 77.309L50.2763 77.0162C50.6499 77.917 51.1389 78.758 51.725 79.5208L51.119 79.9865ZM55.9833 83.722C55.02 83.3225 54.1209 82.7997 53.3058 82.1733L53.7715 81.5673C54.5343 82.1534 55.3753 82.6424 56.2761 83.016L55.9833 83.722ZM60.5184 84.6211C59.9943 84.6211 59.478 84.5871 58.9715 84.521L59.0704 83.7631C59.5441 83.8249 60.0274 83.8568 60.5184 83.8568H61.986V84.6211H60.5184ZM84 84.6211H82.5324V83.8568H84V84.6211ZM79.5972 84.6211H76.662V83.8568H79.5972V84.6211ZM73.7268 84.6211H70.7916V83.8568H73.7268V84.6211ZM67.8564 84.6211H64.9212V83.8568H67.8564V84.6211Z" fill="#3C414D"/>
</svg>
