<svg width="207" height="72" viewBox="0 0 207 72" fill="none" xmlns="http://www.w3.org/2000/svg">
<rect x="0.5" y="0.5" width="206" height="71" rx="7.5" fill="white"/>
<rect x="0.5" y="0.5" width="206" height="71" rx="7.5" stroke="#E6E8EC"/>
<rect x="8.5" y="8.5" width="55" height="55" rx="7.5" fill="#078A52"/>
<rect x="8.5" y="8.5" width="55" height="55" rx="7.5" stroke="#02693E"/>
<path d="M43.4063 27H28.5938C28.1711 27 27.7657 27.1679 27.4668 27.4668C27.1679 27.7657 27 28.1711 27 28.5938V33.2072C27.0004 33.5135 27.089 33.8131 27.2553 34.0703C27.4216 34.3275 27.6584 34.5314 27.9375 34.6575L33.8063 37.3247C32.9373 37.811 32.2541 38.5717 31.8638 39.4878C31.4735 40.4039 31.3981 41.4236 31.6494 42.3871C31.9006 43.3507 32.4644 44.2037 33.2524 44.8125C34.0403 45.4214 35.008 45.7516 36.0037 45.7516C36.9995 45.7516 37.9672 45.4214 38.7551 44.8125C39.5431 44.2037 40.1069 43.3507 40.3581 42.3871C40.6094 41.4236 40.534 40.4039 40.1437 39.4878C39.7534 38.5717 39.0702 37.811 38.2013 37.3247L44.0625 34.6575C44.3416 34.5314 44.5784 34.3275 44.7447 34.0703C44.911 33.8131 44.9996 33.5135 45 33.2072V28.5938C45 28.1711 44.8321 27.7657 44.5332 27.4668C44.2343 27.1679 43.8289 27 43.4063 27ZM39 28.5V35.3128L36 36.6759L33 35.3128V28.5H39ZM28.5 33.2072V28.5938C28.5 28.5689 28.5099 28.545 28.5275 28.5275C28.545 28.5099 28.5689 28.5 28.5938 28.5H31.5V34.6303L28.5553 33.2925C28.5389 33.2851 28.5249 33.2731 28.5151 33.258C28.5053 33.2429 28.5 33.2252 28.5 33.2072ZM36 44.25C35.4067 44.25 34.8266 44.0741 34.3333 43.7444C33.8399 43.4148 33.4554 42.9462 33.2284 42.3981C33.0013 41.8499 32.9419 41.2467 33.0576 40.6647C33.1734 40.0828 33.4591 39.5482 33.8787 39.1287C34.2982 38.7091 34.8328 38.4234 35.4147 38.3076C35.9967 38.1919 36.5999 38.2513 37.1481 38.4784C37.6962 38.7054 38.1648 39.0899 38.4944 39.5833C38.8241 40.0766 39 40.6567 39 41.25C39 42.0457 38.6839 42.8087 38.1213 43.3713C37.5587 43.9339 36.7957 44.25 36 44.25ZM43.5 33.2072C43.5 33.2252 43.4947 33.2429 43.4849 33.258C43.4751 33.2731 43.4611 33.2851 43.4447 33.2925L40.5 34.6303V28.5H43.4063C43.4311 28.5 43.455 28.5099 43.4725 28.5275C43.4901 28.545 43.5 28.5689 43.5 28.5938V33.2072Z" fill="white"/>
<path d="M81.28 31V19.8H83.328L86.896 28.728L90.464 19.8H92.512V31H90.912V22.664L87.568 31H86.224L82.864 22.664V31H81.28ZM98.2959 31.128C95.7999 31.128 94.2639 29.16 94.2639 26.92C94.2639 24.664 95.6719 22.808 98.1519 22.808C100.632 22.808 101.96 24.584 101.96 26.632C101.96 26.84 101.944 27.112 101.928 27.256H95.7839C95.9119 28.76 96.9039 29.8 98.2959 29.8C99.4799 29.8 100.248 29.288 100.472 28.376H102.024C101.752 30.04 100.296 31.128 98.2959 31.128ZM95.8319 26.056H100.392C100.296 24.824 99.4799 24.056 98.1519 24.056C96.9039 24.056 96.0719 24.744 95.8319 26.056ZM103.761 31V19.56H105.313V31H103.761ZM107.574 31V22.936H109.126V31H107.574ZM107.478 19.56H109.206V21.512H107.478V19.56ZM114.042 31.128C112.09 31.128 110.922 30.12 110.794 28.376H112.218C112.298 29.304 112.986 29.864 114.026 29.864C114.986 29.864 115.61 29.4 115.61 28.68C115.61 26.712 111.002 28.424 111.002 25.208C111.002 23.784 112.202 22.808 113.882 22.808C115.754 22.808 116.89 23.752 117.002 25.32H115.578C115.498 24.536 114.826 24.024 113.898 24.024C113.098 24.024 112.442 24.424 112.442 25.144C112.442 27.048 117.066 25.24 117.066 28.6C117.066 30.152 115.914 31.128 114.042 31.128ZM121.495 31.128C119.543 31.128 118.375 30.12 118.247 28.376H119.671C119.751 29.304 120.439 29.864 121.479 29.864C122.439 29.864 123.063 29.4 123.063 28.68C123.063 26.712 118.455 28.424 118.455 25.208C118.455 23.784 119.655 22.808 121.335 22.808C123.207 22.808 124.343 23.752 124.455 25.32H123.031C122.951 24.536 122.279 24.024 121.351 24.024C120.551 24.024 119.895 24.424 119.895 25.144C119.895 27.048 124.519 25.24 124.519 28.6C124.519 30.152 123.367 31.128 121.495 31.128ZM128.66 31.128C127.012 31.128 125.908 30.136 125.908 28.696C125.908 27.144 127.156 26.12 129.044 26.12H130.74C131.108 26.12 131.284 25.992 131.284 25.704C131.284 24.728 130.564 24.056 129.332 24.056C128.196 24.056 127.396 24.76 127.348 25.576H125.908C126.036 23.992 127.46 22.808 129.38 22.808C131.46 22.808 132.82 24.008 132.82 25.8V31H131.284V29.672C130.884 30.552 129.876 31.128 128.66 31.128ZM128.964 29.896C130.42 29.896 131.284 28.952 131.284 27.464V27.32H129.204C128.148 27.32 127.46 27.816 127.46 28.664C127.46 29.4 128.052 29.896 128.964 29.896Z" fill="black"/>
<path d="M83.22 54L80.224 44.2H81.722L83.976 51.83L86.314 44.2H87.588L89.926 51.83L92.208 44.2H93.678L90.71 54H89.24L86.944 46.454L84.662 54H83.22ZM96.2594 54.112C94.8174 54.112 93.8514 53.244 93.8514 51.984C93.8514 50.626 94.9434 49.73 96.5954 49.73H98.0794C98.4014 49.73 98.5554 49.618 98.5554 49.366C98.5554 48.512 97.9254 47.924 96.8474 47.924C95.8534 47.924 95.1534 48.54 95.1114 49.254H93.8514C93.9634 47.868 95.2094 46.832 96.8894 46.832C98.7094 46.832 99.8994 47.882 99.8994 49.45V54H98.5554V52.838C98.2054 53.608 97.3234 54.112 96.2594 54.112ZM96.5254 53.034C97.7994 53.034 98.5554 52.208 98.5554 50.906V50.78H96.7354C95.8114 50.78 95.2094 51.214 95.2094 51.956C95.2094 52.6 95.7274 53.034 96.5254 53.034ZM104.113 54.112C102.405 54.112 101.383 53.23 101.271 51.704H102.517C102.587 52.516 103.189 53.006 104.099 53.006C104.939 53.006 105.485 52.6 105.485 51.97C105.485 50.248 101.453 51.746 101.453 48.932C101.453 47.686 102.503 46.832 103.973 46.832C105.611 46.832 106.605 47.658 106.703 49.03H105.457C105.387 48.344 104.799 47.896 103.987 47.896C103.287 47.896 102.713 48.246 102.713 48.876C102.713 50.542 106.759 48.96 106.759 51.9C106.759 53.258 105.751 54.112 104.113 54.112ZM111.551 56.856V46.944H112.909V47.98C113.343 47.28 114.225 46.832 115.163 46.832C117.291 46.832 118.509 48.386 118.509 50.472C118.509 52.558 117.291 54.112 115.177 54.112C114.225 54.112 113.329 53.65 112.909 52.95V56.856H111.551ZM114.967 52.922C116.269 52.922 117.137 51.942 117.137 50.472C117.137 49.002 116.269 48.022 114.967 48.022C113.665 48.022 112.797 49.002 112.797 50.472C112.797 51.942 113.665 52.922 114.967 52.922ZM120.055 54V46.944H121.413V48.302C121.735 47.364 122.295 46.944 123.289 46.944H124.143V48.12H123.121C121.833 48.12 121.413 49.268 121.413 50.808V54H120.055ZM128.222 54.112C126.108 54.112 124.582 52.586 124.582 50.472C124.582 48.358 126.108 46.832 128.222 46.832C130.336 46.832 131.848 48.358 131.848 50.472C131.848 52.586 130.336 54.112 128.222 54.112ZM128.222 52.922C129.552 52.922 130.462 51.914 130.462 50.472C130.462 49.03 129.552 48.022 128.222 48.022C126.878 48.022 125.968 49.03 125.968 50.472C125.968 51.914 126.878 52.922 128.222 52.922ZM133.357 54V46.944H134.715V48.19C135.009 47.392 135.779 46.832 136.829 46.832C137.907 46.832 138.803 47.364 139.083 48.288C139.377 47.448 140.357 46.832 141.379 46.832C142.905 46.832 143.857 47.882 143.857 49.52V54H142.499V49.898C142.499 48.778 141.939 48.022 141.001 48.022C139.923 48.022 139.279 49.03 139.279 50.15V54H137.921V49.898C137.921 48.778 137.361 48.022 136.437 48.022C135.359 48.022 134.715 49.03 134.715 50.15V54H133.357ZM148.908 54.112C146.794 54.112 145.268 52.586 145.268 50.472C145.268 48.358 146.794 46.832 148.908 46.832C151.022 46.832 152.534 48.358 152.534 50.472C152.534 52.586 151.022 54.112 148.908 54.112ZM148.908 52.922C150.238 52.922 151.148 51.914 151.148 50.472C151.148 49.03 150.238 48.022 148.908 48.022C147.564 48.022 146.654 49.03 146.654 50.472C146.654 51.914 147.564 52.922 148.908 52.922ZM156.846 54C155.418 54 154.494 53.132 154.494 51.69V48.12H153.052V46.944H154.494V44.732H155.852V46.944H157.938V48.12H155.852V51.648C155.852 52.404 156.272 52.824 156.944 52.824H157.938V54H156.846ZM162.194 54.112C160.01 54.112 158.666 52.39 158.666 50.43C158.666 48.456 159.898 46.832 162.068 46.832C164.238 46.832 165.4 48.386 165.4 50.178C165.4 50.36 165.386 50.598 165.372 50.724H159.996C160.108 52.04 160.976 52.95 162.194 52.95C163.23 52.95 163.902 52.502 164.098 51.704H165.456C165.218 53.16 163.944 54.112 162.194 54.112ZM160.038 49.674H164.028C163.944 48.596 163.23 47.924 162.068 47.924C160.976 47.924 160.248 48.526 160.038 49.674ZM169.846 54.112C167.746 54.112 166.528 52.558 166.528 50.472C166.528 48.386 167.732 46.832 169.86 46.832C170.812 46.832 171.694 47.28 172.128 47.98V43.99H173.486V54H172.128V52.95C171.708 53.65 170.812 54.112 169.846 54.112ZM170.07 52.922C171.372 52.922 172.226 51.942 172.226 50.472C172.226 49.002 171.372 48.022 170.07 48.022C168.754 48.022 167.9 49.002 167.9 50.472C167.9 51.942 168.754 52.922 170.07 52.922Z" fill="#717989"/>
</svg>
