<svg width="46" height="47" viewBox="0 0 46 47" fill="none" xmlns="http://www.w3.org/2000/svg">
<rect x="0.568526" y="1.42448" width="44.3451" height="44.3451" rx="6.25379" fill="#FFF8D2"/>
<rect x="0.568526" y="1.42448" width="44.3451" height="44.3451" rx="6.25379" stroke="#FEF0A4" stroke-width="1.13705"/>
<g clip-path="url(#clip0_1751_579)">
<path d="M20.5885 28.744C20.5539 28.8817 19.6878 32.125 14.9237 32.125C14.7352 32.125 14.5545 32.0501 14.4212 31.9168C14.2879 31.7836 14.2131 31.6028 14.2131 31.4143C14.2131 26.6503 17.4563 25.7841 17.594 25.7495C17.7769 25.7038 17.9706 25.7326 18.1322 25.8297C18.2939 25.9267 18.4104 26.084 18.4561 26.2669C18.5018 26.4499 18.473 26.6435 18.3759 26.8052C18.2789 26.9668 18.1216 27.0834 17.9387 27.1291C17.8587 27.1513 15.9471 27.71 15.6681 30.6699C18.628 30.391 19.1877 28.4829 19.2108 28.394C19.2579 28.2113 19.3756 28.0548 19.5382 27.9589C19.7007 27.8631 19.8946 27.8357 20.0773 27.8828C20.26 27.9299 20.4165 28.0477 20.5124 28.2102C20.6083 28.3727 20.6357 28.5667 20.5885 28.7494V28.744ZM28.8499 22.7567L28.4262 23.1805V28.3621C28.4273 28.5494 28.3911 28.7351 28.3197 28.9084C28.2483 29.0816 28.1432 29.2389 28.0105 29.3712L24.9618 32.4181C24.8303 32.5505 24.6739 32.6556 24.5016 32.7273C24.3293 32.7989 24.1445 32.8358 23.9579 32.8356C23.8039 32.8356 23.651 32.8107 23.5049 32.7619C23.2541 32.679 23.0315 32.5275 22.8623 32.3247C22.6931 32.1219 22.584 31.8758 22.5473 31.6142L22.0703 28.195L18.143 24.2678L14.7256 23.7907C14.4637 23.754 14.2172 23.6449 14.0139 23.4757C13.8106 23.3066 13.6585 23.084 13.5748 22.8331C13.4911 22.5822 13.479 22.3129 13.54 22.0556C13.601 21.7982 13.7325 21.563 13.9199 21.3763L16.9669 18.3276C17.0991 18.1948 17.2564 18.0897 17.4297 18.0184C17.6029 17.947 17.7886 17.9108 17.976 17.9118H23.1576L23.5813 17.4881C25.9513 15.1189 28.8073 15.0168 29.9248 15.0834C30.2713 15.1045 30.5981 15.2516 30.8436 15.4971C31.0891 15.7426 31.2362 16.0694 31.2573 16.4159C31.3221 17.5307 31.22 20.3867 28.8508 22.7567H28.8499ZM14.9237 22.3836L18.2238 22.8438L21.7363 19.3331H17.976L14.9237 22.3836ZM19.4826 23.5971L22.7409 26.8555L27.8444 21.752C28.5321 21.0689 29.0657 20.2465 29.4092 19.34C29.7527 18.4336 29.8983 17.4641 29.836 16.4967C28.8691 16.4368 27.9006 16.5838 26.9951 16.928C26.0896 17.2722 25.268 17.8057 24.5851 18.4928L19.4826 23.5971ZM27.0049 24.6018L23.4934 28.1133L23.9553 31.4143L27.0049 28.3621V24.6018Z" fill="#9D6A09"/>
</g>
<defs>
<clipPath id="clip0_1751_579">
<rect width="22.7411" height="22.7411" fill="white" transform="translate(11.3705 12.2266)"/>
</clipPath>
</defs>
</svg>
