<svg width="195" height="72" viewBox="0 0 195 72" fill="none" xmlns="http://www.w3.org/2000/svg">
<rect x="0.5" y="0.5" width="194" height="71" rx="7.5" fill="white"/>
<rect x="0.5" y="0.5" width="194" height="71" rx="7.5" stroke="#E6E8EC"/>
<rect x="8.5" y="8.5" width="55" height="55" rx="7.5" fill="#EFF1F3"/>
<rect x="8.5" y="8.5" width="55" height="55" rx="7.5" stroke="#E6E8EC"/>
<path d="M32.25 33.75H27.75C27.5511 33.75 27.3603 33.671 27.2197 33.5303C27.079 33.3897 27 33.1989 27 33V28.5C27 28.3011 27.079 28.1103 27.2197 27.9697C27.3603 27.829 27.5511 27.75 27.75 27.75C27.9489 27.75 28.1397 27.829 28.2803 27.9697C28.421 28.1103 28.5 28.3011 28.5 28.5V30.7359C29.9503 29.1 32.4947 27 36 27C40.0144 27 42.4294 29.3691 42.5306 29.4694C42.6716 29.6099 42.751 29.8006 42.7514 29.9996C42.7517 30.1986 42.673 30.3896 42.5325 30.5306C42.392 30.6716 42.2013 30.751 42.0023 30.7514C41.8032 30.7517 41.6122 30.673 41.4713 30.5325C41.4459 30.5072 39.3675 28.5 36 28.5C32.7188 28.5 30.3534 30.8109 29.1975 32.25H32.25C32.4489 32.25 32.6397 32.329 32.7803 32.4697C32.921 32.6103 33 32.8011 33 33C33 33.1989 32.921 33.3897 32.7803 33.5303C32.6397 33.671 32.4489 33.75 32.25 33.75ZM44.25 38.25H39.75C39.5511 38.25 39.3603 38.329 39.2197 38.4697C39.079 38.6103 39 38.8011 39 39C39 39.1989 39.079 39.3897 39.2197 39.5303C39.3603 39.671 39.5511 39.75 39.75 39.75H42.8025C41.6466 41.1891 39.2813 43.5 36 43.5C32.6325 43.5 30.5541 41.4928 30.5288 41.4675C30.3878 41.327 30.1968 41.2483 29.9977 41.2486C29.7987 41.249 29.608 41.3284 29.4675 41.4694C29.327 41.6104 29.2483 41.8014 29.2486 42.0004C29.249 42.1994 29.3284 42.3901 29.4694 42.5306C29.5706 42.6309 31.9856 45 36 45C39.5053 45 42.0497 42.9 43.5 41.2641V43.5C43.5 43.6989 43.579 43.8897 43.7197 44.0303C43.8603 44.171 44.0511 44.25 44.25 44.25C44.4489 44.25 44.6397 44.171 44.7803 44.0303C44.921 43.8897 45 43.6989 45 43.5V39C45 38.8011 44.921 38.6103 44.7803 38.4697C44.6397 38.329 44.4489 38.25 44.25 38.25Z" fill="#717989"/>
<path d="M81.28 31V19.8H85.616C87.92 19.8 89.28 21.192 89.28 23.176C89.28 25.16 87.92 26.552 85.616 26.552H82.944V31H81.28ZM85.568 25.112C87.008 25.112 87.568 24.2 87.568 23.176C87.568 22.152 87.008 21.24 85.568 21.24H82.944V25.112H85.568ZM93.9678 31.128C91.4718 31.128 89.9358 29.16 89.9358 26.92C89.9358 24.664 91.3438 22.808 93.8238 22.808C96.3038 22.808 97.6318 24.584 97.6318 26.632C97.6318 26.84 97.6158 27.112 97.5998 27.256H91.4557C91.5838 28.76 92.5758 29.8 93.9678 29.8C95.1518 29.8 95.9198 29.288 96.1438 28.376H97.6958C97.4237 30.04 95.9678 31.128 93.9678 31.128ZM91.5038 26.056H96.0638C95.9678 24.824 95.1518 24.056 93.8238 24.056C92.5758 24.056 91.7438 24.744 91.5038 26.056ZM102.684 31C101.052 31 99.9959 30.008 99.9959 28.36V24.28H98.3479V22.936H99.9959V20.408H101.548V22.936H103.932V24.28H101.548V28.312C101.548 29.176 102.028 29.656 102.796 29.656H103.932V31H102.684ZM108.796 31.128C106.3 31.128 104.764 29.16 104.764 26.92C104.764 24.664 106.172 22.808 108.652 22.808C111.132 22.808 112.46 24.584 112.46 26.632C112.46 26.84 112.444 27.112 112.428 27.256H106.284C106.412 28.76 107.404 29.8 108.796 29.8C109.98 29.8 110.748 29.288 110.972 28.376H112.524C112.252 30.04 110.796 31.128 108.796 31.128ZM106.332 26.056H110.892C110.796 24.824 109.98 24.056 108.652 24.056C107.404 24.056 106.572 24.744 106.332 26.056ZM114.261 31V22.936H115.813V24.488C116.181 23.416 116.821 22.936 117.957 22.936H118.933V24.28H117.765C116.293 24.28 115.813 25.592 115.813 27.352V31H114.261Z" fill="black"/>
<path d="M85.39 54.112C82.856 54.112 80.602 52.46 80.602 49.1C80.602 45.74 82.884 44.088 85.39 44.088C87.602 44.088 89.38 45.446 89.632 47.35H88.106C87.952 46.202 86.79 45.376 85.376 45.376C83.472 45.376 82.086 46.678 82.086 49.1C82.086 51.522 83.472 52.824 85.39 52.824C86.832 52.824 87.98 51.998 88.134 50.85H89.618C89.408 52.754 87.644 54.112 85.39 54.112ZM91.1522 54V43.99H92.5102V48.19C92.8882 47.308 93.7282 46.832 94.7782 46.832C96.3742 46.832 97.4102 47.98 97.4102 49.66V54H96.0522V49.926C96.0522 48.806 95.3942 48.05 94.4002 48.05C93.2942 48.05 92.5102 48.946 92.5102 50.178V54H91.1522ZM101.373 54.112C99.9306 54.112 98.9646 53.244 98.9646 51.984C98.9646 50.626 100.057 49.73 101.709 49.73H103.193C103.515 49.73 103.669 49.618 103.669 49.366C103.669 48.512 103.039 47.924 101.961 47.924C100.967 47.924 100.267 48.54 100.225 49.254H98.9646C99.0766 47.868 100.323 46.832 102.003 46.832C103.823 46.832 105.013 47.882 105.013 49.45V54H103.669V52.838C103.319 53.608 102.437 54.112 101.373 54.112ZM101.639 53.034C102.913 53.034 103.669 52.208 103.669 50.906V50.78H101.849C100.925 50.78 100.323 51.214 100.323 51.956C100.323 52.6 100.841 53.034 101.639 53.034ZM106.902 54V46.944H108.26V48.19C108.638 47.308 109.478 46.832 110.528 46.832C112.124 46.832 113.16 47.98 113.16 49.66V54H111.802V49.926C111.802 48.806 111.144 48.05 110.15 48.05C109.044 48.05 108.26 48.946 108.26 50.178V54H106.902ZM115.541 56.856V55.722H118.803C119.629 55.722 120.203 55.12 120.203 54.252V53.104C119.853 53.706 118.943 54.112 117.921 54.112C115.821 54.112 114.603 52.558 114.603 50.472C114.603 48.386 115.807 46.832 117.935 46.832C118.845 46.832 119.755 47.252 120.203 47.882V46.944H121.561V54.336C121.561 55.848 120.525 56.856 118.943 56.856H115.541ZM118.145 52.922C119.447 52.922 120.301 51.942 120.301 50.472C120.301 49.002 119.447 48.022 118.145 48.022C116.829 48.022 115.975 49.002 115.975 50.472C115.975 51.942 116.829 52.922 118.145 52.922ZM126.607 54.112C124.423 54.112 123.079 52.39 123.079 50.43C123.079 48.456 124.311 46.832 126.481 46.832C128.651 46.832 129.813 48.386 129.813 50.178C129.813 50.36 129.799 50.598 129.785 50.724H124.409C124.521 52.04 125.389 52.95 126.607 52.95C127.643 52.95 128.315 52.502 128.511 51.704H129.869C129.631 53.16 128.357 54.112 126.607 54.112ZM124.451 49.674H128.441C128.357 48.596 127.643 47.924 126.481 47.924C125.389 47.924 124.661 48.526 124.451 49.674ZM134.259 54.112C132.159 54.112 130.941 52.558 130.941 50.472C130.941 48.386 132.145 46.832 134.273 46.832C135.225 46.832 136.107 47.28 136.541 47.98V43.99H137.899V54H136.541V52.95C136.121 53.65 135.225 54.112 134.259 54.112ZM134.483 52.922C135.785 52.922 136.639 51.942 136.639 50.472C136.639 49.002 135.785 48.022 134.483 48.022C133.167 48.022 132.313 49.002 132.313 50.472C132.313 51.942 133.167 52.922 134.483 52.922ZM141.649 56.856V55.722H142.195C142.797 55.722 143.133 55.302 143.133 54.532V46.944H144.491V54.616C144.491 56.058 143.707 56.856 142.335 56.856H141.649ZM143.049 43.99H144.561V45.698H143.049V43.99ZM149.633 54.112C147.519 54.112 145.993 52.586 145.993 50.472C145.993 48.358 147.519 46.832 149.633 46.832C151.747 46.832 153.259 48.358 153.259 50.472C153.259 52.586 151.747 54.112 149.633 54.112ZM149.633 52.922C150.963 52.922 151.873 51.914 151.873 50.472C151.873 49.03 150.963 48.022 149.633 48.022C148.289 48.022 147.379 49.03 147.379 50.472C147.379 51.914 148.289 52.922 149.633 52.922ZM158.393 54.112C157.441 54.112 156.545 53.65 156.125 52.95V54H154.767V43.99H156.125V47.98C156.559 47.28 157.441 46.832 158.379 46.832C160.507 46.832 161.725 48.386 161.725 50.472C161.725 52.558 160.507 54.112 158.393 54.112ZM158.183 52.922C159.485 52.922 160.353 51.942 160.353 50.472C160.353 49.002 159.485 48.022 158.183 48.022C156.881 48.022 156.013 49.002 156.013 50.472C156.013 51.942 156.881 52.922 158.183 52.922Z" fill="#717989"/>
</svg>
