<svg width="46" height="46" viewBox="0 0 46 46" fill="none" xmlns="http://www.w3.org/2000/svg">
<rect x="0.568526" y="0.661788" width="44.3451" height="44.3451" rx="6.25379" fill="#DBFFE0"/>
<rect x="0.568526" y="0.661788" width="44.3451" height="44.3451" rx="6.25379" stroke="#BCF4CA" stroke-width="1.13705"/>
<g clip-path="url(#clip0_1751_591)">
<path d="M31.5638 14.0112C31.3851 13.8326 31.162 13.7048 30.9175 13.6411C30.673 13.5774 30.4159 13.5801 30.1727 13.6488H30.1594L13.1089 18.8223C12.8314 18.9022 12.5847 19.0646 12.4018 19.2881C12.2189 19.5116 12.1084 19.7855 12.0851 20.0734C12.0618 20.3613 12.1267 20.6494 12.2712 20.8994C12.4157 21.1495 12.6329 21.3496 12.894 21.4731L20.4998 25.0752L24.1019 32.6811C24.2157 32.9246 24.3967 33.1306 24.6237 33.2746C24.8506 33.4186 25.1141 33.4947 25.3829 33.4939C25.4237 33.4939 25.4646 33.4921 25.5055 33.4885C25.7923 33.4653 26.0652 33.3549 26.2875 33.1722C26.5098 32.9894 26.6709 32.743 26.7491 32.4661L31.9192 15.4156C31.9192 15.4112 31.9192 15.4067 31.9192 15.4023C31.9888 15.1598 31.9925 14.9031 31.9301 14.6586C31.8676 14.4141 31.7412 14.1906 31.5638 14.0112ZM25.3909 32.0592L25.3864 32.0717L21.89 24.6906L26.0864 20.4933C26.2141 20.3589 26.2842 20.18 26.2818 19.9947C26.2795 19.8094 26.2048 19.6323 26.0737 19.5013C25.9427 19.3702 25.7656 19.2956 25.5803 19.2932C25.395 19.2908 25.2161 19.3609 25.0817 19.4886L20.8844 23.685L13.5025 20.1886H13.5149L30.5583 15.0168L25.3909 32.0592Z" fill="#02693E"/>
</g>
<defs>
<clipPath id="clip0_1751_591">
<rect width="22.7411" height="22.7411" fill="white" transform="translate(11.3705 11.4639)"/>
</clipPath>
</defs>
</svg>
