<svg width="214" height="72" viewBox="0 0 214 72" fill="none" xmlns="http://www.w3.org/2000/svg">
<rect x="0.5" y="0.5" width="213" height="71" rx="7.5" fill="white"/>
<rect x="0.5" y="0.5" width="213" height="71" rx="7.5" stroke="#E6E8EC"/>
<rect x="8.5" y="8.5" width="55" height="55" rx="7.5" fill="#EFF1F3"/>
<rect x="8.5" y="8.5" width="55" height="55" rx="7.5" stroke="#E6E8EC"/>
<path d="M39.9038 36.5933L44.101 34.7689C44.3775 34.6463 44.6104 34.443 44.7693 34.1856C44.9282 33.9282 45.0056 33.6289 44.9913 33.3268C44.977 33.0246 44.8717 32.7339 44.6892 32.4927C44.5068 32.2515 44.2556 32.0711 43.9688 31.9751L28.9613 27.0748C28.6988 26.9907 28.4183 26.9805 28.1504 27.0454C27.8825 27.1103 27.6377 27.2477 27.4428 27.4426C27.2479 27.6375 27.1105 27.8823 27.0456 28.1502C26.9808 28.418 26.9909 28.6986 27.0751 28.9611L31.9754 43.9686C32.0678 44.2581 32.247 44.5123 32.4886 44.6967C32.7302 44.8812 33.0226 44.987 33.3263 44.9998H33.4004C33.6916 45.0008 33.9766 44.916 34.22 44.7562C34.4634 44.5963 34.6543 44.3684 34.7691 44.1008L36.5935 39.9036L41.2501 44.5601C41.3894 44.6995 41.5547 44.81 41.7367 44.8854C41.9187 44.9608 42.1138 44.9996 42.3108 44.9996C42.5079 44.9996 42.7029 44.9608 42.8849 44.8854C43.067 44.81 43.2323 44.6995 43.3716 44.5601L44.5604 43.3714C44.6997 43.2321 44.8102 43.0667 44.8856 42.8847C44.961 42.7027 44.9998 42.5076 44.9998 42.3106C44.9998 42.1136 44.961 41.9185 44.8856 41.7365C44.8102 41.5545 44.6997 41.3891 44.5604 41.2498L39.9038 36.5933ZM42.3104 43.4998L37.6547 38.8433C37.4819 38.6701 37.2692 38.5419 37.0354 38.4698C36.8017 38.3977 36.5538 38.3839 36.3134 38.4296C36.073 38.4753 35.8475 38.579 35.6564 38.7319C35.4654 38.8847 35.3146 39.0819 35.2172 39.3064L33.3966 43.4923L28.5001 28.4998L43.4879 33.3945L39.3029 35.2142C39.0784 35.3115 38.8812 35.4623 38.7283 35.6534C38.5755 35.8444 38.4717 36.07 38.4261 36.3103C38.3804 36.5507 38.3942 36.7986 38.4663 37.0324C38.5384 37.2662 38.6666 37.4788 38.8397 37.6517L43.5001 42.3101L42.3104 43.4998ZM32.2501 26.2498V25.4998C32.2501 25.3009 32.3291 25.1101 32.4697 24.9695C32.6104 24.8288 32.8011 24.7498 33.0001 24.7498C33.199 24.7498 33.3897 24.8288 33.5304 24.9695C33.671 25.1101 33.7501 25.3009 33.7501 25.4998V26.2498C33.7501 26.4487 33.671 26.6395 33.5304 26.7801C33.3897 26.9208 33.199 26.9998 33.0001 26.9998C32.8011 26.9998 32.6104 26.9208 32.4697 26.7801C32.3291 26.6395 32.2501 26.4487 32.2501 26.2498ZM24.7501 32.9998C24.7501 32.8009 24.8291 32.6101 24.9697 32.4695C25.1104 32.3288 25.3011 32.2498 25.5001 32.2498H26.2501C26.449 32.2498 26.6397 32.3288 26.7804 32.4695C26.921 32.6101 27.0001 32.8009 27.0001 32.9998C27.0001 33.1987 26.921 33.3895 26.7804 33.5301C26.6397 33.6708 26.449 33.7498 26.2501 33.7498H25.5001C25.3011 33.7498 25.1104 33.6708 24.9697 33.5301C24.8291 33.3895 24.7501 33.1987 24.7501 32.9998ZM35.3297 26.6642L36.0798 25.1642C36.1688 24.9863 36.3248 24.851 36.5135 24.7882C36.7023 24.7253 36.9083 24.74 37.0862 24.829C37.2641 24.918 37.3993 25.0741 37.4622 25.2628C37.525 25.4516 37.5103 25.6575 37.4213 25.8354L36.6713 27.3354C36.6272 27.4235 36.5662 27.5021 36.4918 27.5666C36.4174 27.6311 36.331 27.6803 36.2375 27.7115C36.1441 27.7426 36.0454 27.755 35.9471 27.748C35.8489 27.741 35.753 27.7147 35.6649 27.6706C35.5768 27.6265 35.4983 27.5655 35.4338 27.4911C35.3692 27.4167 35.32 27.3303 35.2889 27.2368C35.2578 27.1434 35.2454 27.0447 35.2524 26.9464C35.2594 26.8482 35.2857 26.7523 35.3297 26.6642ZM27.6713 35.6642C27.7155 35.7523 27.7418 35.8483 27.7488 35.9466C27.7558 36.0449 27.7434 36.1437 27.7122 36.2372C27.681 36.3307 27.6317 36.4172 27.5671 36.4916C27.5025 36.5661 27.4239 36.627 27.3357 36.6711L25.8357 37.4211C25.6578 37.5101 25.4518 37.5248 25.2631 37.4619C25.0743 37.3991 24.9183 37.2638 24.8293 37.0859C24.7403 36.908 24.7256 36.702 24.7884 36.5133C24.8513 36.3246 24.9865 36.1685 25.1644 36.0795L26.6644 35.3295C26.7525 35.2853 26.8484 35.2589 26.9467 35.2519C27.045 35.2448 27.1437 35.2571 27.2372 35.2882C27.3307 35.3193 27.4172 35.3685 27.4917 35.433C27.5662 35.4975 27.6272 35.5761 27.6713 35.6642Z" fill="#717989"/>
<path d="M83.68 31V21.272H80.176V19.8H88.848V21.272H85.344V31H83.68ZM91.3076 31.128C89.3556 31.128 88.1876 30.12 88.0596 28.376H89.4836C89.5636 29.304 90.2516 29.864 91.2916 29.864C92.2516 29.864 92.8756 29.4 92.8756 28.68C92.8756 26.712 88.2676 28.424 88.2676 25.208C88.2676 23.784 89.4676 22.808 91.1476 22.808C93.0196 22.808 94.1556 23.752 94.2676 25.32H92.8436C92.7636 24.536 92.0916 24.024 91.1636 24.024C90.3636 24.024 89.7076 24.424 89.7076 25.144C89.7076 27.048 94.3316 25.24 94.3316 28.6C94.3316 30.152 93.1796 31.128 91.3076 31.128ZM99.0008 31.128C97.1768 31.128 95.9928 29.816 95.9928 27.896V22.936H97.5448V27.592C97.5448 28.872 98.2968 29.736 99.4328 29.736C100.697 29.736 101.609 28.712 101.609 27.304V22.936H103.161V31H101.609V29.576C101.177 30.584 100.201 31.128 99.0008 31.128ZM105.417 31V22.936H106.969V24.36C107.401 23.352 108.361 22.808 109.561 22.808C111.385 22.808 112.569 24.12 112.569 26.04V31H111.017V26.344C111.017 25.064 110.265 24.2 109.129 24.2C107.865 24.2 106.969 25.224 106.969 26.632V31H105.417ZM118.346 31.128C115.93 31.128 114.186 29.384 114.186 26.968C114.186 24.552 115.93 22.808 118.346 22.808C120.762 22.808 122.49 24.552 122.49 26.968C122.49 29.384 120.762 31.128 118.346 31.128ZM118.346 29.768C119.866 29.768 120.906 28.616 120.906 26.968C120.906 25.32 119.866 24.168 118.346 24.168C116.81 24.168 115.77 25.32 115.77 26.968C115.77 28.616 116.81 29.768 118.346 29.768ZM127.494 31.128C125.094 31.128 123.702 29.352 123.702 26.968C123.702 24.584 125.078 22.808 127.51 22.808C128.598 22.808 129.606 23.32 130.102 24.12V19.56H131.654V31H130.102V29.8C129.622 30.6 128.598 31.128 127.494 31.128ZM127.75 29.768C129.238 29.768 130.214 28.648 130.214 26.968C130.214 25.288 129.238 24.168 127.75 24.168C126.246 24.168 125.27 25.288 125.27 26.968C125.27 28.648 126.246 29.768 127.75 29.768ZM136.301 31.128C134.653 31.128 133.549 30.136 133.549 28.696C133.549 27.144 134.797 26.12 136.685 26.12H138.381C138.749 26.12 138.925 25.992 138.925 25.704C138.925 24.728 138.205 24.056 136.973 24.056C135.837 24.056 135.037 24.76 134.989 25.576H133.549C133.677 23.992 135.101 22.808 137.021 22.808C139.101 22.808 140.461 24.008 140.461 25.8V31H138.925V29.672C138.525 30.552 137.517 31.128 136.301 31.128ZM136.605 29.896C138.061 29.896 138.925 28.952 138.925 27.464V27.32H136.845C135.789 27.32 135.101 27.816 135.101 28.664C135.101 29.4 135.693 29.896 136.605 29.896Z" fill="black"/>
<path d="M83.836 54L80.182 44.2H81.666L84.55 52.25L87.462 44.2H88.946L85.292 54H83.836ZM90.1268 54V46.944H91.4848V54H90.1268ZM90.0428 43.99H91.5548V45.698H90.0428V43.99ZM95.7868 54.112C94.0788 54.112 93.0568 53.23 92.9448 51.704H94.1908C94.2608 52.516 94.8628 53.006 95.7728 53.006C96.6128 53.006 97.1588 52.6 97.1588 51.97C97.1588 50.248 93.1268 51.746 93.1268 48.932C93.1268 47.686 94.1768 46.832 95.6468 46.832C97.2848 46.832 98.2788 47.658 98.3768 49.03H97.1308C97.0608 48.344 96.4728 47.896 95.6608 47.896C94.9608 47.896 94.3868 48.246 94.3868 48.876C94.3868 50.542 98.4328 48.96 98.4328 51.9C98.4328 53.258 97.4248 54.112 95.7868 54.112ZM99.9842 54V46.944H101.342V54H99.9842ZM99.9002 43.99H101.412V45.698H99.9002V43.99ZM106.274 54C104.846 54 103.922 53.132 103.922 51.69V48.12H102.48V46.944H103.922V44.732H105.28V46.944H107.366V48.12H105.28V51.648C105.28 52.404 105.7 52.824 106.372 52.824H107.366V54H106.274ZM111.622 54.112C109.438 54.112 108.094 52.39 108.094 50.43C108.094 48.456 109.326 46.832 111.496 46.832C113.666 46.832 114.828 48.386 114.828 50.178C114.828 50.36 114.814 50.598 114.8 50.724H109.424C109.536 52.04 110.404 52.95 111.622 52.95C112.658 52.95 113.33 52.502 113.526 51.704H114.884C114.646 53.16 113.372 54.112 111.622 54.112ZM109.466 49.674H113.456C113.372 48.596 112.658 47.924 111.496 47.924C110.404 47.924 109.676 48.526 109.466 49.674ZM119.274 54.112C117.174 54.112 115.956 52.558 115.956 50.472C115.956 48.386 117.16 46.832 119.288 46.832C120.24 46.832 121.122 47.28 121.556 47.98V43.99H122.914V54H121.556V52.95C121.136 53.65 120.24 54.112 119.274 54.112ZM119.498 52.922C120.8 52.922 121.654 51.942 121.654 50.472C121.654 49.002 120.8 48.022 119.498 48.022C118.182 48.022 117.328 49.002 117.328 50.472C117.328 51.942 118.182 52.922 119.498 52.922ZM128.96 56.856L129.954 54.112L127.392 46.944H128.778L130.612 52.348L132.432 46.944H133.832L130.29 56.856H128.96ZM138.066 54.112C135.952 54.112 134.426 52.586 134.426 50.472C134.426 48.358 135.952 46.832 138.066 46.832C140.18 46.832 141.692 48.358 141.692 50.472C141.692 52.586 140.18 54.112 138.066 54.112ZM138.066 52.922C139.396 52.922 140.306 51.914 140.306 50.472C140.306 49.03 139.396 48.022 138.066 48.022C136.722 48.022 135.812 49.03 135.812 50.472C135.812 51.914 136.722 52.922 138.066 52.922ZM145.735 54.112C144.139 54.112 143.103 52.964 143.103 51.284V46.944H144.461V51.018C144.461 52.138 145.119 52.894 146.113 52.894C147.219 52.894 148.017 51.998 148.017 50.766V46.944H149.375V54H148.017V52.754C147.639 53.636 146.785 54.112 145.735 54.112ZM151.349 54V46.944H152.707V48.302C153.029 47.364 153.589 46.944 154.583 46.944H155.437V48.12H154.415C153.127 48.12 152.707 49.268 152.707 50.808V54H151.349ZM162.177 54.112C160.469 54.112 159.447 53.23 159.335 51.704H160.581C160.651 52.516 161.253 53.006 162.163 53.006C163.003 53.006 163.549 52.6 163.549 51.97C163.549 50.248 159.517 51.746 159.517 48.932C159.517 47.686 160.567 46.832 162.037 46.832C163.675 46.832 164.669 47.658 164.767 49.03H163.521C163.451 48.344 162.863 47.896 162.051 47.896C161.351 47.896 160.777 48.246 160.777 48.876C160.777 50.542 164.823 48.96 164.823 51.9C164.823 53.258 163.815 54.112 162.177 54.112ZM166.375 54V46.944H167.733V54H166.375ZM166.291 43.99H167.803V45.698H166.291V43.99ZM172.665 54C171.237 54 170.313 53.132 170.313 51.69V48.12H168.871V46.944H170.313V44.732H171.671V46.944H173.757V48.12H171.671V51.648C171.671 52.404 172.091 52.824 172.763 52.824H173.757V54H172.665ZM178.013 54.112C175.829 54.112 174.485 52.39 174.485 50.43C174.485 48.456 175.717 46.832 177.887 46.832C180.057 46.832 181.219 48.386 181.219 50.178C181.219 50.36 181.205 50.598 181.191 50.724H175.815C175.927 52.04 176.795 52.95 178.013 52.95C179.049 52.95 179.721 52.502 179.917 51.704H181.275C181.037 53.16 179.763 54.112 178.013 54.112ZM175.857 49.674H179.847C179.763 48.596 179.049 47.924 177.887 47.924C176.795 47.924 176.067 48.526 175.857 49.674Z" fill="#717989"/>
</svg>
