<?xml version="1.0" encoding="UTF-8"?><svg id="Layer_1" xmlns="http://www.w3.org/2000/svg" viewBox="0 0 2400 934.78"><defs><style>.cls-1{fill:#fff;}.cls-2{fill:#240642;}</style></defs><g><path class="cls-2" d="M320.97,934.78c185.94,0,282.08-57.59,311.1-115.34,1.67-3.33-1.53-7.1-5.06-5.93-32.73,10.82-57.16-9.28-59.9-32.48,0,0-9.15-98.38-41.88-107.98,1.94-3.99,9.83-35.43-14.56-64.48,6.67-20.55,1.16-34.08-3.83-44.31,6.08-7.45,10.75-17.06,12.77-26.42,.5-2.22,.49-4.18,2.29-6.27,11.5-9.55,24.19-17.43,31.91-31.41,13.91-25.26,4.59-54.11-12.27-75.4-1.71-2.35-3.05-3.48-3.17-9.52,.04-10.32-1.83-20.94-7.38-29.66-2.83-4.43-6.54-8.26-10.43-11.81-16.2-15.1-35.58-26.25-54.19-38.29-2.56-1.64-5.54-3.82-6.65-6.8-5.86-21.8-21.01-38.66-39.85-43.25-.4-14.6-15.8-36.74-39.1-36.74-7.11,0-12.99,3.86-16.66-2.79-8.52-16.15-25.5-19.15-34.36-19.56-1.49-.07-1.91-2.07-.56-2.71,2.84-1.36,7.14-3.24,13.52-5.7,32-15.31,18.76-102.52,5.66-148.54C342.24,52.21,326.7,3.35,288.63,.12c-2.62-.22-5.3-.16-7.83,.57-7.33,2.11-12.76,7.98-16.58,16.11-12.59,25.3-15.74,93.59-20.37,122.79-6.57,41.64-12.52,86.31-33.27,104.62-8.84-23.31-21.63-34.11-28.62-33.7-6.09,1.43,2.15,13.26-1.36,30.71-2.44,10.04-8,19.41-17.47,19.41-27.75,0-52.74-138.73-60.2-222.07-.2-2.18-.41-4.35-.81-6.51C98.46,11.91,87.86,.02,76.66,.02,70.98,.02,50.59-2.05,27.24,34.65,11.19,63.27,.99,93.19,0,148.91c.02,56.15,25.08,93.7,35.23,112.17,41.48,68.19,47.02,91.73,39.17,133.3-7.98,40.3,16.36,62.96,16.36,62.96-3.44,5.33-7.98,19.61-9.03,35.28-.67,9.98,1.37,27.88,6.14,38.96-10.47,22.55-10.22,40.47-10.22,51.77,0,26.18-11.43,36.84-26.29,41.5,4.01,14.28,30.66,21.93,46.08,6.67-4.55,44.85-12.96,85.25-24.7,135.25-7.3,34.23-6.07,53.41-.54,69.65,2.49,7.32,6.39,14.06,11.16,20.14,56.87,72.51,163.58,78.22,237.61,78.22Zm-.09-97.87c-20.49-3.33-39.66-13.54-53.65-29-37.28,12.34-76.04-19.02-64.26-60.42,1.88-5.42,9.96-3.43,9.16,2.22-1.16,7.29,.18,14.75,3.31,21.17,8.33,19.03,33.16,24.15,48.38,10.89,5.63-4.96,13.77-3.07,17.59,3.08,33.33,45.21,102.48,36.73,125.67-14.02,3.4-7.09,5.62-14.6,6.91-22.38,.91-5.52,9.19-5,9.42,.58,1.87,54.62-49.28,96.42-102.54,87.89Z"/><g><path class="cls-1" d="M529.96,446.9c-3.56,0-7.39,4.97-8.37,12.71-2.12,10.91-1.39,31.08-11.12,31.08-6.73,0-7.34-13.52-18.65-25.98-11.73-12.09-28.55-13.32-39.34-22.02-6-4.16-9.57-9.28-9.18-18.07,0,0,1.28-14,20.18-11.44,8.99,.94,23.56,3.13,32.58,4.16,16.11,1.82,20.04-10.16,20.52-14.23,1.03-9.54-9.1-17.44-15.51-23-8.1-7.05-16.93-13.38-26.08-19.06-1.66-1.03-3.35-2.1-5.04-3.18-22.95-14.63-63.75-39.12-86.63-11.16-8.2,10.98-11.76,23.63-14.33,34.11-4.75,19.18-14.72,26.58-21.8,38.28-11.25,18.57-18.98,39.66-19.57,61.36-.1,31.33,19.28,62.02,50.2,81.2,25.66,13.46,38.83,13.46,49.11,10.71,1.88-.64,6-3.51,3.17-8.26-.51-1.01-1.94-3.23-2.81-4.67-2.93-5.39,1.08-10.32,7.02-5.71,3.91,3.06,7.9,6.12,12.5,7.99,3.87,1.57,8.28,2.19,12.28,1.13,0,0,0,0,.01,0,4.68-1.53,7.05-4.6,7.32-8.52,.27-4.68-1.85-8.3-5.36-10.23-5.34-2.6-17.16-9.1-22.15-12.78-5.63-3.94-11.65-9.83-13.74-12.05-6.81-7.24-8.76-14.31-13-14.31-.71,.04-1.4,.44-1.88,.98-2.66,2.84-2.68,7.52-2.81,10.19-.09,1.97,.22,4.97-2.54,4.97-6.84,0-6.82-14.26-6.81-18.13,0-5.3,1.94-19.05,10.13-19.05,2.53,0,5.97,3.39,7.32,4.72,18.05,20.03,39.03,35.61,65.61,35.61,20.35,0,37.35-11.49,48.04-22.26,8.37-8.4,13.88-18.92,14.25-29.79,.23-6.89-3.08-25.29-13.52-25.29Zm-116.6,18.64c-2.47,1.37-5.42-.33-8.11-1.21-5.41-1.78-11.55,.02-16.01,3.56-3.06,2.44-5.4,5.63-7.3,9.07-2.07,3.76-2.46,8.72-6.91,8.72-3.66,0-5.5-5.07-5.9-7.16-2.15-11.35,3.33-23.98,13.52-29.42,10.19-5.44,24.32-2.56,30.91,6.92,1.02,1.47,1.89,3.13,2.01,4.92,.12,1.79-.63,3.73-2.2,4.6Z"/><path class="cls-1" d="M279.28,335.64c-9.73,.14-19.17,4.32-26.05,11.38-3.87,3.97-12.49,16.81-11.65,36.6-.14,2.91-3.97,3.95-5.51,1.47-6.21-11.12-6.57-22.72-4.16-31.28,5.35-17.3,20.46-31.68,40.88-31.68,26.79,0,33.51,17.52,34.85,22.95,.64,2.25-2.14,3.91-3.85,2.31-4.44-4.13-11.29-11.75-24.53-11.75Z"/><path class="cls-1" d="M281.47,374.82c-6.4,.57-11.45-3.56-12.02-9.95-.56-6.28,3.67-11.46,10.07-12.03,6.4-.57,11.59,3.78,12.15,10.06,.57,6.4-3.8,11.35-10.19,11.92Z"/></g><path class="cls-1" d="M71.73,255.23c-9.44,0-40.39-50.2-40.39-121.08,0-31.81,8.17-65.76,23.02-65.76,9.14,0,11.21,19.46,11.63,25.23,4.81,60.88-3.04,102.23,8.42,157.38,.76,3.23-1.19,4.24-2.68,4.24Z"/></g><g><path class="cls-2" d="M1795.14,708.33c-10.15-12.49-15.69-28.09-15.69-44.18v-116.19c0-82.46-38.87-129.68-107.61-129.68-91.53,0-109.25,49.86-133.62,92.28-1.18,2.05-3.79,2.78-5.88,1.66l-5.09-2.73c-2.18-1.17-2.97-3.9-1.74-6.05l6.95-12.15c4.39-7.54,6.74-16.1,6.74-24.83v-17.53c0-11.31-9.17-20.48-20.48-20.48h-99.67c-15.01,0-23.1,17.62-13.31,29l14.52,16.89c14.64,17.03,22.69,38.74,22.69,61.2v120.61c0,13.38-2.86,26.61-8.39,38.79l-11.54,25.44c-5.27,11.62,3.22,24.81,15.99,24.81h124.52c14.83,0,22.98-17.24,13.57-28.7l-10.08-12.27c-10.28-12.53-15.91-28.23-15.91-44.44v-66.55c0-23.23,5.56-46.29,17.21-66.39,14.14-24.4,32.6-36.87,55.71-36.87,31.1,0,47.81,22.15,47.81,62.16v108.1c0,13.06-2.72,25.97-8,37.92l-9.89,22.39c-5.12,11.61,3.37,24.65,16.06,24.65h118.19c14.79,0,22.95-17.16,13.62-28.63l-6.69-8.23Z"/><path class="cls-2" d="M2017.12,698.84c-3.98,.79-7.88,1.34-11.31,1.42-32.12,0-47.58-20.22-47.58-61.81v-165.27h58.49c6.77,0,12.26-5.49,12.26-12.26v-20.02c0-6.77-5.49-12.26-12.26-12.26h-74.85c-2.1,0-3.8-1.7-3.8-3.8v-5.61c0-2.09,1.68-3.79,3.77-3.8h7.6c4.85,.01,8.79-3.92,8.79-8.77v-43.72c0-8.34-6.76-15.09-15.09-15.09h-43.05c-7.84,0-14.78,5.08-17.11,12.57-4.97,16.4-16.93,68.23-55.83,68.23h-11.57c-6.74,0-12.22,5.48-12.22,12.26v20.02c0,6.78,5.48,12.26,12.22,12.26h35.67v169.45c0,68.94,35.08,106.98,98.66,106.98,31.73,0,60.5-11.59,77.93-32.48,6.78-8.16-.28-20.34-10.72-18.29Z"/><path class="cls-2" d="M1392.13,686.38c-18.95,3.42-31.77-11.43-31.77-34.73v-112.14c0-79.98-50.69-122.94-149.15-122.94-88.18,0-148.4,33.9-148.56,85.1-.04,9.19,3.41,18.2,8.49,26.87,8.17,12.54,22.93,20.95,39.84,20.95,25.74,0,46.61-19.42,46.61-43.37-.08-24.56-20.82-37.01-27.11-39.35,4.47-3.81,23.78-18.69,52.29-18.69,45.32,0,69.59,34.35,69.59,87.83v21.26c-34.02,0-72.17,3.41-99.01,9.96-65.67,14.35-100.28,51.72-100.28,98.27,0,52.5,41.78,85.3,108,85.3,45.96,0,84.15-16.08,102.05-42.96,11.31,22.7,36.38,37.01,68.62,37.01,41.7,0,63.54-21.76,70.44-47.62,1.78-7.36-3.78-11.98-10.05-10.76Zm-139.77-25.15c-3.55,25.03-20.85,39.97-45.92,39.97-27.47,0-45.96-18.49-45.96-47.73,0-22.67,10.13-42.49,32.24-52.03,14.9-6.58,38.15-10.17,59.64-10.76v70.56Z"/><path class="cls-2" d="M2389.61,686.38c-18.95,3.42-31.77-11.43-31.77-34.73v-112.14c0-79.98-50.69-122.94-149.15-122.94-88.18,0-148.4,33.9-148.56,85.1-.04,9.19,3.41,18.2,8.49,26.87,8.17,12.54,22.93,20.95,39.84,20.95,25.74,0,46.61-19.42,46.61-43.37-.08-24.56-20.82-37.01-27.11-39.35,4.47-3.81,23.78-18.69,52.29-18.69,45.32,0,69.59,34.35,69.59,87.83v21.26c-34.02,0-72.17,3.41-99.01,9.96-65.67,14.35-100.28,51.72-100.28,98.27,0,52.5,41.78,85.3,108,85.3,45.96,0,84.15-16.08,102.05-42.96,11.31,22.7,36.38,37.01,68.62,37.01,41.7,0,63.54-21.76,70.44-47.62,1.78-7.36-3.78-11.98-10.05-10.76Zm-139.77-25.15c-3.55,25.03-20.85,39.97-45.92,39.97-27.47,0-45.96-18.49-45.96-47.73,0-22.67,10.13-42.49,32.24-52.03,14.9-6.58,38.15-10.17,59.64-10.76v70.56Z"/><path class="cls-2" d="M1070.02,322.88h-54.12c-11.65,0-18.62,12.95-12.22,22.67l9.27,14.09c7.92,12.04,9.47,27.18,4.15,40.57l-97.09,244.21c-4.47,11.76-9,19.82-11.05,21.8-1.1,1.06-2.94,1.38-4.37,.31l-5.12-4.07c-1.63-1.22-1.53-2.99-.04-4.66,2.85-3.78,4.62-8.34,5.61-12.49,1.19-4.98,.79-10.21-1.03-15l-82.22-217.35c-5.43-14.34-5.22-30.21,.59-44.41l8.78-21.46c4.73-11.55-3.77-24.21-16.25-24.21h-132.49c-17.85,0-27.16,21.24-15.06,34.36l8.43,9.15c15.49,16.81,27.73,36.33,36.11,57.59l118.05,308.52c3.09,7.83,10.64,12.97,19.06,12.97h65.37c8.4,0,15.95-5.13,19.04-12.93l152.92-385.62c4.57-11.53-3.92-24.03-16.32-24.03Z"/></g></svg>