<svg version="1.1" id="Artwork" xmlns="http://www.w3.org/2000/svg" xmlns:xlink="http://www.w3.org/1999/xlink" x="0px" y="0px" viewBox="0 0 477.14 142.78" style="enable-background:new 0 0 477.14 142.78;" xml:space="preserve">
 <style type="text/css">
  .st0{opacity:0.5;fill:none;}
	.st1{fill-rule:evenodd;clip-rule:evenodd;}
 </style>
 <g>
  <rect class="st0" width="477.14" height="142.78">
  </rect>
  <g>
   <g>
    <path class="st1" d="M67.13,87.01l49.21-49.2c1.06-1.06,2.77-1.06,3.83,0l16.05,16.04c1.06,1.06,1.06,2.78,0,3.83l-47.29,47.28
				c-1.06,1.06-2.78,1.06-3.84,0L67.13,87.01">
    </path>
    <path class="st1" d="M37.81,57.69c-1.06-1.06-1.06-2.78,0-3.83l16.05-16.04c1.06-1.06,2.78-1.06,3.84,0l24.88,24.87L62.69,82.56
				L37.81,57.69">
    </path>
   </g>
   <g>
    <path d="M171.39,46.05h9.82l15.49,41.17l15.49-41.17h9.82l-20.02,52.88h-10.58L171.39,46.05z">
    </path>
    <path d="M252.91,93.27c0,0-4.91,6.42-15.49,6.42c-12.09,0-21.41-10.57-19.36-22.59c1.59-9.28,9.98-16.13,19.4-15.93
				c10.36,0.21,17.72,8.44,17.72,18.5c0,2.27-0.38,4.16-0.38,4.16h-27.57c0.91,4.16,4.53,7.93,10.58,7.93
				c6.42,0,10.2-4.61,10.2-4.61L252.91,93.27z M245.73,76.65c-1.13-4.16-4.16-7.18-9.07-7.18c-5.29,0-8.31,3.02-9.44,7.18H245.73z">
    </path>
    <path d="M262.21,61.92h8.69v5.29h0.38c0,0,3.78-6.04,10.58-6.04h1.51v9.44c0,0-1.13-0.38-3.02-0.38c-5.29,0-9.44,4.16-9.44,10.58
				v18.13h-8.69V61.92z">
    </path>
    <path d="M288.82,46.05h8.69v32.11l14.73-16.24h10.58L308.84,77.4l14.73,21.53h-9.82l-10.58-15.49l-5.67,6.42v9.07h-8.69V46.05z">
    </path>
    <path d="M349.28,94.02h-0.38c0,0-3.4,5.67-10.95,5.67c-7.18,0-12.09-4.91-12.09-10.58c0-6.04,4.53-10.58,10.95-11.71l12.47-2.27
				c0-2.64-3.02-5.67-7.18-5.67c-5.52,0-9.07,4.53-9.07,4.53l-5.29-5.29c0,0,5.29-7.55,14.73-7.55c9.07,0,15.49,6.65,15.49,14.73
				v23.04h-8.69V94.02z M349.28,81.93l-8.69,1.51c-4.53,0.83-6.04,2.27-6.04,4.53s2.27,4.53,5.67,4.53c4.91,0,9.07-4.16,9.07-9.44
				V81.93z">
    </path>
    <path d="M392.95,93.64h-0.38c0,0-3.4,6.04-12.09,6.04s-16.62-7.93-16.62-19.26s7.93-19.26,16.62-19.26s12.09,6.04,12.09,6.04
				h0.38V46.05h8.69v52.88h-8.69V93.64z M392.95,80.42c0-6.04-4.53-10.58-10.2-10.58s-10.2,4.53-10.2,10.58
				c0,6.04,4.53,10.58,10.2,10.58S392.95,86.47,392.95,80.42z">
    </path>
    <path d="M431.11,94.02h-0.38c0,0-3.4,5.67-10.95,5.67c-7.18,0-12.09-4.91-12.09-10.58c0-6.04,4.53-10.58,10.95-11.71l12.47-2.27
				c0-2.64-3.02-5.67-7.18-5.67c-5.51,0-9.07,4.53-9.07,4.53l-5.29-5.29c0,0,5.29-7.55,14.73-7.55c9.07,0,15.49,6.65,15.49,14.73
				v23.04h-8.69V94.02z M431.11,81.93l-8.69,1.51c-4.53,0.83-6.04,2.27-6.04,4.53s2.27,4.53,5.67,4.53c4.91,0,9.07-4.16,9.07-9.44
				V81.93z">
    </path>
   </g>
  </g>
 </g>
</svg>